<?xml version="1.0" encoding="UTF-8"?>
<svg version="1.1" xmlns="http://www.w3.org/2000/svg" width="512" height="512">
<path d="M0 0 C3.35591997 2.60788285 6.30173663 5.47390166 9.1953125 8.58203125 C11.81479518 11.24914089 14.59035729 13.66002029 17.4152832 16.10546875 C20.96605162 19.22467664 24.38102935 22.48502665 27.80859375 25.73828125 C33.71972871 31.32544796 39.66409421 36.86833556 45.671875 42.3515625 C48.78960631 45.19928731 51.89457527 48.06042836 54.99609375 50.92578125 C55.5365332 51.4249707 56.07697266 51.92416016 56.63378906 52.43847656 C57.72840853 53.44964678 58.82297218 54.46087742 59.91748047 55.47216797 C62.63036961 57.97842229 65.34454234 60.48328571 68.05859375 62.98828125 C69.14193332 63.98827449 70.22526666 64.98827449 71.30859375 65.98828125 C71.84484375 66.48328125 72.38109375 66.97828125 72.93359375 67.48828125 C120.87109375 111.73828125 120.87109375 111.73828125 168.80859375 155.98828125 C169.61369385 156.73126465 169.61369385 156.73126465 170.43505859 157.48925781 C171.51400891 158.48546156 172.59246287 159.48220318 173.67041016 160.47949219 C176.44189644 163.04229988 179.2224191 165.59407245 182.01953125 168.12890625 C194.78262642 179.72019462 206.00417075 191.43789793 206.89453125 209.6875 C207.19397586 226.14386311 204.31680126 239.71354916 192.71875 252.09375 C187.90182136 257.04997983 182.82366224 261.64822833 177.60913086 266.18066406 C174.27055384 269.1237316 171.0423396 272.18104553 167.80859375 275.23828125 C162.07045038 280.64065029 156.29923966 286.00088039 150.48046875 291.31640625 C147.3521539 294.1770578 144.23491655 297.04937875 141.12109375 299.92578125 C140.58073486 300.42489014 140.04037598 300.92399902 139.48364258 301.43823242 C138.38894483 302.44948737 137.29429979 303.46079937 136.19970703 304.47216797 C133.48681789 306.97842229 130.77264516 309.48328571 128.05859375 311.98828125 C126.97525418 312.98827449 125.89192084 313.98827449 124.80859375 314.98828125 C40.30859375 392.98828125 40.30859375 392.98828125 38.68408203 394.48779297 C37.59907119 395.48936651 36.51411037 396.49099425 35.42919922 397.49267578 C32.74693618 399.96904397 30.06385441 402.44451189 27.37890625 404.91796875 C26.85280762 405.40305908 26.32670898 405.88814941 25.78466797 406.38793945 C24.71690495 407.371851 23.64821846 408.3547613 22.57861328 409.33666992 C19.61724285 412.06153894 16.68953847 414.81562019 13.79296875 417.609375 C-0.3072996 431.1522075 -13.22727106 439.72921863 -33.41845703 439.45458984 C-47.44743136 438.90647324 -59.0380315 433.51125818 -68.859375 423.53125 C-76.36802071 414.58567772 -81.68057832 404.27938321 -81.70146847 392.41886044 C-81.70853406 391.13166731 -81.71559965 389.84447418 -81.72287935 388.5182752 C-81.72062831 387.10218458 -81.71818185 385.68609426 -81.71556091 384.27000427 C-81.72001601 382.75601136 -81.72533095 381.24202078 -81.73142964 379.7280336 C-81.74558774 375.57508043 -81.74727334 371.42220218 -81.74683273 367.26922834 C-81.74848289 362.78709011 -81.76155323 358.30498257 -81.77302551 353.82286072 C-81.79586023 344.02512745 -81.80379464 334.22741587 -81.80885196 324.42965961 C-81.81211107 318.30853691 -81.81863489 312.18742049 -81.82585335 306.06630135 C-81.8454181 289.10920508 -81.86182277 272.15211465 -81.86472988 255.19500637 C-81.86491745 254.11019315 -81.86510502 253.02537992 -81.86529827 251.90769357 C-81.86566452 249.70862869 -81.86602822 247.50956382 -81.86638939 245.31049895 C-81.8665722 244.21892052 -81.86675501 243.1273421 -81.86694336 242.00268555 C-81.86712391 240.90977017 -81.86730446 239.81685479 -81.86749048 238.69082076 C-81.87103075 220.98885308 -81.89804454 203.28700716 -81.93544125 185.58508169 C-81.97355369 167.39836639 -81.99288758 149.21171145 -81.99318939 131.02495533 C-81.99377334 120.81879094 -82.00222462 110.61277176 -82.03118706 100.40664482 C-82.05574034 91.71444727 -82.06295727 83.02244787 -82.04793953 74.33022498 C-82.04078651 69.89903884 -82.04155827 65.46824368 -82.06435013 61.03710175 C-82.0850566 56.97227118 -82.08223221 52.90812929 -82.06147528 48.84330524 C-82.05800251 47.38095488 -82.06279552 45.91855364 -82.07717972 44.45626991 C-82.21322885 29.65966276 -78.53220061 17.15707641 -68.44140625 5.98828125 C-49.53914488 -12.07869197 -21.78616565 -14.76653027 0 0 Z " fill="#000000" transform="translate(113.44140625,41.01171875)"/>
<path d="M0 0 C1.11158478 -0.00524185 2.22316956 -0.0104837 3.36843872 -0.0158844 C5.70639211 -0.02227236 8.04437777 -0.02100975 10.38232422 -0.01245117 C13.92865144 -0.00394621 17.47336279 -0.03274262 21.01953125 -0.06445312 C23.30468702 -0.06606573 25.58984561 -0.06548647 27.875 -0.0625 C28.91913055 -0.07373398 29.96326111 -0.08496796 31.03903198 -0.09654236 C44.98632315 0.03327151 55.71496624 5.3704552 65.8203125 14.74609375 C76.57754399 26.11222514 78.52528099 38.55587512 78.45799255 53.677948 C78.46217086 55.21245593 78.46765109 56.74696077 78.47431237 58.28145993 C78.4887206 62.47714669 78.48453678 66.67263624 78.47714555 70.86833358 C78.4724047 75.40150894 78.48493185 79.9346422 78.49516296 84.46780396 C78.5123384 93.34054129 78.51319357 102.21320776 78.50795006 111.08595739 C78.50390475 118.29958238 78.50535621 125.51318646 78.51069832 132.72681046 C78.51144674 133.75442526 78.51219516 134.78204007 78.51296626 135.84079472 C78.51449778 137.92855461 78.51603613 140.01631449 78.51758123 142.10407437 C78.53130176 161.67236955 78.52587175 181.24062471 78.51439602 200.80891897 C78.50446439 218.69956146 78.51740391 236.59010052 78.54133021 254.48072706 C78.56572977 272.86415409 78.57532695 291.24753295 78.56867748 309.63097584 C78.56518714 319.94654862 78.56740516 330.26204187 78.58492851 340.57760239 C78.59966119 349.35907149 78.60027198 358.14040505 78.5828576 366.92187153 C78.57435399 371.3993517 78.5721824 375.87658985 78.58750916 380.35405731 C78.60138532 384.45868243 78.59655577 388.56285884 78.57726992 392.66745819 C78.57351855 394.14650034 78.57640686 395.62557868 78.58688157 397.10458849 C78.6914198 413.00503985 74.59466824 424.50330348 63.7578125 436.18359375 C53.53748597 445.85640279 41.88739519 448.90568812 28.140625 448.8671875 C26.47324783 448.87505028 26.47324783 448.87505028 24.77218628 448.8830719 C22.43423289 448.88945986 20.09624723 448.88819725 17.75830078 448.87963867 C14.21197356 448.87113371 10.66726221 448.89993012 7.12109375 448.93164062 C4.83593798 448.93325323 2.55077939 448.93267397 0.265625 448.9296875 C-0.77850555 448.94092148 -1.82263611 448.95215546 -2.89840698 448.96372986 C-16.84569815 448.83391599 -27.57434124 443.4967323 -37.6796875 434.12109375 C-48.43691899 422.75496236 -50.38465599 410.31131238 -50.31736755 395.1892395 C-50.32154586 393.65473157 -50.32702609 392.12022673 -50.33368737 390.58572757 C-50.3480956 386.39004081 -50.34391178 382.19455126 -50.33652055 377.99885392 C-50.3317797 373.46567856 -50.34430685 368.9325453 -50.35453796 364.39938354 C-50.3717134 355.52664621 -50.37256857 346.65397974 -50.36732506 337.78123011 C-50.36327975 330.56760512 -50.36473121 323.35400104 -50.37007332 316.14037704 C-50.37082174 315.11276224 -50.37157016 314.08514743 -50.37234126 313.02639278 C-50.37387278 310.93863289 -50.37541113 308.85087301 -50.37695623 306.76311313 C-50.39067676 287.19481795 -50.38524675 267.62656279 -50.37377102 248.05826853 C-50.36383939 230.16762604 -50.37677891 212.27708698 -50.40070521 194.38646044 C-50.42510477 176.00303341 -50.43470195 157.61965455 -50.42805248 139.23621166 C-50.42456214 128.92063888 -50.42678016 118.60514563 -50.44430351 108.28958511 C-50.45903619 99.50811601 -50.45964698 90.72678245 -50.4422326 81.94531597 C-50.43372899 77.4678358 -50.4315574 72.99059765 -50.44688416 68.51313019 C-50.46076032 64.40850507 -50.45593077 60.30432866 -50.43664492 56.19972931 C-50.43289355 54.72068716 -50.43578186 53.24160882 -50.44625657 51.76259901 C-50.5507948 35.86214765 -46.45404324 24.36388402 -35.6171875 12.68359375 C-25.39686097 3.01078471 -13.74677019 -0.03850062 0 0 Z " fill="#000000" transform="translate(401.9296875,31.56640625)"/>
</svg>
