<?xml version="1.0" encoding="UTF-8"?>
<svg version="1.1" xmlns="http://www.w3.org/2000/svg" width="512" height="512">
<path d="M0 0 C1.84026277 -0.0045699 3.68052383 -0.00987786 5.52078247 -0.0158844 C9.36532554 -0.02478404 13.20966053 -0.02242881 17.05419922 -0.01245117 C21.95178432 -0.00097166 26.84864728 -0.02117353 31.74613762 -0.05036831 C35.54343132 -0.06882135 39.34055489 -0.06841971 43.13788223 -0.06273079 C44.94218076 -0.06257865 46.74649162 -0.06853271 48.55074692 -0.08102226 C65.56988159 -0.18224888 77.99492701 2.84683019 90.8203125 14.74609375 C101.57754399 26.11222514 103.52528099 38.55587512 103.45799255 53.677948 C103.46217086 55.21245593 103.46765109 56.74696077 103.47431237 58.28145993 C103.4887206 62.47714669 103.48453678 66.67263624 103.47714555 70.86833358 C103.4724047 75.40150894 103.48493185 79.9346422 103.49516296 84.46780396 C103.5123384 93.34054129 103.51319357 102.21320776 103.50795006 111.08595739 C103.50390475 118.29958238 103.50535621 125.51318646 103.51069832 132.72681046 C103.51144674 133.75442526 103.51219516 134.78204007 103.51296626 135.84079472 C103.51449778 137.92855461 103.51603613 140.01631449 103.51758123 142.10407437 C103.53130176 161.67236955 103.52587175 181.24062471 103.51439602 200.80891897 C103.50446439 218.69956146 103.51740391 236.59010052 103.54133021 254.48072706 C103.56572977 272.86415409 103.57532695 291.24753295 103.56867748 309.63097584 C103.56518714 319.94654862 103.56740516 330.26204187 103.58492851 340.57760239 C103.59966119 349.35907149 103.60027198 358.14040505 103.5828576 366.92187153 C103.57435399 371.3993517 103.5721824 375.87658985 103.58750916 380.35405731 C103.60138532 384.45868243 103.59655577 388.56285884 103.57726992 392.66745819 C103.57351855 394.14650034 103.57640686 395.62557868 103.58688157 397.10458849 C103.6914198 413.00503985 99.59466824 424.50330348 88.7578125 436.18359375 C76.23119993 448.03913779 62.46160285 448.90282292 46.140625 448.8671875 C44.30036223 448.8717574 42.46010117 448.87706536 40.61984253 448.8830719 C36.77529946 448.89197154 32.93096447 448.88961631 29.08642578 448.87963867 C24.18884068 448.86815916 19.29197772 448.88836103 14.39448738 448.91755581 C10.59719368 448.93600885 6.80007011 448.93560721 3.00274277 448.92991829 C1.19844424 448.92976615 -0.60586662 448.93572021 -2.41012192 448.94820976 C-19.42925659 449.04943638 -31.85430201 446.02035731 -44.6796875 434.12109375 C-55.43691899 422.75496236 -57.38465599 410.31131238 -57.31736755 395.1892395 C-57.32154586 393.65473157 -57.32702609 392.12022673 -57.33368737 390.58572757 C-57.3480956 386.39004081 -57.34391178 382.19455126 -57.33652055 377.99885392 C-57.3317797 373.46567856 -57.34430685 368.9325453 -57.35453796 364.39938354 C-57.3717134 355.52664621 -57.37256857 346.65397974 -57.36732506 337.78123011 C-57.36327975 330.56760512 -57.36473121 323.35400104 -57.37007332 316.14037704 C-57.37082174 315.11276224 -57.37157016 314.08514743 -57.37234126 313.02639278 C-57.37387278 310.93863289 -57.37541113 308.85087301 -57.37695623 306.76311313 C-57.39067676 287.19481795 -57.38524675 267.62656279 -57.37377102 248.05826853 C-57.36383939 230.16762604 -57.37677891 212.27708698 -57.40070521 194.38646044 C-57.42510477 176.00303341 -57.43470195 157.61965455 -57.42805248 139.23621166 C-57.42456214 128.92063888 -57.42678016 118.60514563 -57.44430351 108.28958511 C-57.45903619 99.50811601 -57.45964698 90.72678245 -57.4422326 81.94531597 C-57.43372899 77.4678358 -57.4315574 72.99059765 -57.44688416 68.51313019 C-57.46076032 64.40850507 -57.45593077 60.30432866 -57.43664492 56.19972931 C-57.43289355 54.72068716 -57.43578186 53.24160882 -57.44625657 51.76259901 C-57.5507948 35.86214765 -53.45404324 24.36388402 -42.6171875 12.68359375 C-30.09057493 0.82804971 -16.32097785 -0.03563542 0 0 Z " fill="#000000" transform="translate(344.9296875,31.56640625)"/>
<path d="M0 0 C1.84026277 -0.0045699 3.68052383 -0.00987786 5.52078247 -0.0158844 C9.36532554 -0.02478404 13.20966053 -0.02242881 17.05419922 -0.01245117 C21.95178432 -0.00097166 26.84864728 -0.02117353 31.74613762 -0.05036831 C35.54343132 -0.06882135 39.34055489 -0.06841971 43.13788223 -0.06273079 C44.94218076 -0.06257865 46.74649162 -0.06853271 48.55074692 -0.08102226 C65.56988159 -0.18224888 77.99492701 2.84683019 90.8203125 14.74609375 C101.57754399 26.11222514 103.52528099 38.55587512 103.45799255 53.677948 C103.46217086 55.21245593 103.46765109 56.74696077 103.47431237 58.28145993 C103.4887206 62.47714669 103.48453678 66.67263624 103.47714555 70.86833358 C103.4724047 75.40150894 103.48493185 79.9346422 103.49516296 84.46780396 C103.5123384 93.34054129 103.51319357 102.21320776 103.50795006 111.08595739 C103.50390475 118.29958238 103.50535621 125.51318646 103.51069832 132.72681046 C103.51144674 133.75442526 103.51219516 134.78204007 103.51296626 135.84079472 C103.51449778 137.92855461 103.51603613 140.01631449 103.51758123 142.10407437 C103.53130176 161.67236955 103.52587175 181.24062471 103.51439602 200.80891897 C103.50446439 218.69956146 103.51740391 236.59010052 103.54133021 254.48072706 C103.56572977 272.86415409 103.57532695 291.24753295 103.56867748 309.63097584 C103.56518714 319.94654862 103.56740516 330.26204187 103.58492851 340.57760239 C103.59966119 349.35907149 103.60027198 358.14040505 103.5828576 366.92187153 C103.57435399 371.3993517 103.5721824 375.87658985 103.58750916 380.35405731 C103.60138532 384.45868243 103.59655577 388.56285884 103.57726992 392.66745819 C103.57351855 394.14650034 103.57640686 395.62557868 103.58688157 397.10458849 C103.6914198 413.00503985 99.59466824 424.50330348 88.7578125 436.18359375 C76.23119993 448.03913779 62.46160285 448.90282292 46.140625 448.8671875 C44.30036223 448.8717574 42.46010117 448.87706536 40.61984253 448.8830719 C36.77529946 448.89197154 32.93096447 448.88961631 29.08642578 448.87963867 C24.18884068 448.86815916 19.29197772 448.88836103 14.39448738 448.91755581 C10.59719368 448.93600885 6.80007011 448.93560721 3.00274277 448.92991829 C1.19844424 448.92976615 -0.60586662 448.93572021 -2.41012192 448.94820976 C-19.42925659 449.04943638 -31.85430201 446.02035731 -44.6796875 434.12109375 C-55.43691899 422.75496236 -57.38465599 410.31131238 -57.31736755 395.1892395 C-57.32154586 393.65473157 -57.32702609 392.12022673 -57.33368737 390.58572757 C-57.3480956 386.39004081 -57.34391178 382.19455126 -57.33652055 377.99885392 C-57.3317797 373.46567856 -57.34430685 368.9325453 -57.35453796 364.39938354 C-57.3717134 355.52664621 -57.37256857 346.65397974 -57.36732506 337.78123011 C-57.36327975 330.56760512 -57.36473121 323.35400104 -57.37007332 316.14037704 C-57.37082174 315.11276224 -57.37157016 314.08514743 -57.37234126 313.02639278 C-57.37387278 310.93863289 -57.37541113 308.85087301 -57.37695623 306.76311313 C-57.39067676 287.19481795 -57.38524675 267.62656279 -57.37377102 248.05826853 C-57.36383939 230.16762604 -57.37677891 212.27708698 -57.40070521 194.38646044 C-57.42510477 176.00303341 -57.43470195 157.61965455 -57.42805248 139.23621166 C-57.42456214 128.92063888 -57.42678016 118.60514563 -57.44430351 108.28958511 C-57.45903619 99.50811601 -57.45964698 90.72678245 -57.4422326 81.94531597 C-57.43372899 77.4678358 -57.4315574 72.99059765 -57.44688416 68.51313019 C-57.46076032 64.40850507 -57.45593077 60.30432866 -57.43664492 56.19972931 C-57.43289355 54.72068716 -57.43578186 53.24160882 -57.44625657 51.76259901 C-57.5507948 35.86214765 -53.45404324 24.36388402 -42.6171875 12.68359375 C-30.09057493 0.82804971 -16.32097785 -0.03563542 0 0 Z " fill="#000000" transform="translate(120.9296875,31.56640625)"/>
</svg>
