<?xml version="1.0" encoding="UTF-8"?>
<svg version="1.1" xmlns="http://www.w3.org/2000/svg" width="512" height="512">
<path d="M0 0 C11.04877689 7.88309771 17.87154017 18.81967863 21.1875 31.875 C21.44165033 35.0879069 21.44165033 35.0879069 21.44756222 38.44442081 C21.4581606 40.37521051 21.4581606 40.37521051 21.4689731 42.34500605 C21.46672206 43.76109667 21.4642756 45.17718699 21.46165466 46.59327698 C21.46610976 48.10726989 21.4714247 49.62126047 21.47752339 51.13524765 C21.49168149 55.28820082 21.49336709 59.44107907 21.49292648 63.59405291 C21.49457664 68.07619114 21.50764698 72.55829868 21.51911926 77.04042053 C21.54195398 86.8381538 21.54988839 96.63586538 21.55494571 106.43362164 C21.55820482 112.55474434 21.56472864 118.67586076 21.5719471 124.7969799 C21.59151185 141.75407617 21.60791652 158.7111666 21.61082363 175.66827488 C21.6110112 176.7530881 21.61119877 177.83790133 21.61139202 178.95558768 C21.61175827 181.15465256 21.61212197 183.35371743 21.61248314 185.5527823 C21.61266595 186.64436073 21.61284876 187.73593915 21.61303711 188.8605957 C21.61330793 190.49996877 21.61330793 190.49996877 21.61358423 192.17246049 C21.6171245 209.87442817 21.64413829 227.57627409 21.681535 245.27819956 C21.71964744 263.46491486 21.73898133 281.6515698 21.73928314 299.83832592 C21.73986709 310.04449031 21.74831837 320.25050949 21.77728081 330.45663643 C21.80183409 339.14883398 21.80905102 347.84083338 21.79403328 356.53305627 C21.78688026 360.96424241 21.78765202 365.39503757 21.81044388 369.8261795 C21.83115035 373.89101007 21.82832596 377.95515196 21.80756903 382.01997601 C21.80409626 383.48232637 21.80888927 384.94472761 21.82327347 386.40701134 C21.9593226 401.20361849 18.27829436 413.70620484 8.1875 424.875 C-4.18514288 436.70089761 -17.34252655 440.54685743 -34.04296875 440.18359375 C-48.36999898 439.50000351 -59.8440031 432.59867603 -69.44921875 422.28125 C-72.06870143 419.61414036 -74.84426354 417.20326096 -77.66918945 414.7578125 C-81.21995787 411.63860461 -84.6349356 408.3782546 -88.0625 405.125 C-93.97363496 399.53783329 -99.91800046 393.99494569 -105.92578125 388.51171875 C-109.04351256 385.66399394 -112.14848152 382.80285289 -115.25 379.9375 C-115.79043945 379.43831055 -116.33087891 378.93912109 -116.88769531 378.42480469 C-117.98231478 377.41363447 -119.07687843 376.40240383 -120.17138672 375.39111328 C-122.88427586 372.88485896 -125.59844859 370.37999554 -128.3125 367.875 C-129.39583957 366.87500676 -130.47917291 365.87500676 -131.5625 364.875 C-132.366875 364.1325 -132.366875 364.1325 -133.1875 363.375 C-165.14583333 333.875 -197.10416667 304.375 -229.0625 274.875 C-229.5992334 274.37967773 -230.1359668 273.88435547 -230.68896484 273.37402344 C-231.76791516 272.37781969 -232.84636912 271.38107807 -233.92431641 270.38378906 C-236.69580269 267.82098137 -239.47632535 265.2692088 -242.2734375 262.734375 C-255.03653267 251.14308663 -266.258077 239.42538332 -267.1484375 221.17578125 C-267.44788211 204.71941814 -264.57070751 191.14973209 -252.97265625 178.76953125 C-248.15572761 173.81330142 -243.07756849 169.21505292 -237.86303711 164.68261719 C-234.52446009 161.73954965 -231.29624585 158.68223572 -228.0625 155.625 C-222.32435663 150.22263096 -216.55314591 144.86240086 -210.734375 139.546875 C-207.60606015 136.68622345 -204.4888228 133.8139025 -201.375 130.9375 C-200.56446167 130.18883667 -200.56446167 130.18883667 -199.73754883 129.42504883 C-198.64285108 128.41379388 -197.54820604 127.40248188 -196.45361328 126.39111328 C-193.74072414 123.88485896 -191.02655141 121.37999554 -188.3125 118.875 C-187.22916043 117.87500676 -186.14582709 116.87500676 -185.0625 115.875 C-100.5625 37.875 -100.5625 37.875 -98.93798828 36.37548828 C-97.85297744 35.37391474 -96.76801662 34.372287 -95.68310547 33.37060547 C-93.00084243 30.89423728 -90.31776066 28.41876936 -87.6328125 25.9453125 C-86.84366455 25.217677 -86.84366455 25.217677 -86.03857422 24.4753418 C-84.9708112 23.49143025 -83.90212471 22.50851995 -82.83251953 21.52661133 C-79.8711491 18.80174231 -76.94344472 16.04766106 -74.046875 13.25390625 C-53.39044966 -6.58589407 -26.23896288 -17.53799882 0 0 Z " fill="#000000" transform="translate(458.8125,40.125)"/>
<path d="M0 0 C1.11158478 -0.00524185 2.22316956 -0.0104837 3.36843872 -0.0158844 C5.70639211 -0.02227236 8.04437777 -0.02100975 10.38232422 -0.01245117 C13.92865144 -0.00394621 17.47336279 -0.03274262 21.01953125 -0.06445312 C23.30468702 -0.06606573 25.58984561 -0.06548647 27.875 -0.0625 C28.91913055 -0.07373398 29.96326111 -0.08496796 31.03903198 -0.09654236 C44.98632315 0.03327151 55.71496624 5.3704552 65.8203125 14.74609375 C76.57754399 26.11222514 78.52528099 38.55587512 78.45799255 53.677948 C78.46217086 55.21245593 78.46765109 56.74696077 78.47431237 58.28145993 C78.4887206 62.47714669 78.48453678 66.67263624 78.47714555 70.86833358 C78.4724047 75.40150894 78.48493185 79.9346422 78.49516296 84.46780396 C78.5123384 93.34054129 78.51319357 102.21320776 78.50795006 111.08595739 C78.50390475 118.29958238 78.50535621 125.51318646 78.51069832 132.72681046 C78.51144674 133.75442526 78.51219516 134.78204007 78.51296626 135.84079472 C78.51449778 137.92855461 78.51603613 140.01631449 78.51758123 142.10407437 C78.53130176 161.67236955 78.52587175 181.24062471 78.51439602 200.80891897 C78.50446439 218.69956146 78.51740391 236.59010052 78.54133021 254.48072706 C78.56572977 272.86415409 78.57532695 291.24753295 78.56867748 309.63097584 C78.56518714 319.94654862 78.56740516 330.26204187 78.58492851 340.57760239 C78.59966119 349.35907149 78.60027198 358.14040505 78.5828576 366.92187153 C78.57435399 371.3993517 78.5721824 375.87658985 78.58750916 380.35405731 C78.60138532 384.45868243 78.59655577 388.56285884 78.57726992 392.66745819 C78.57351855 394.14650034 78.57640686 395.62557868 78.58688157 397.10458849 C78.6914198 413.00503985 74.59466824 424.50330348 63.7578125 436.18359375 C53.53748597 445.85640279 41.88739519 448.90568812 28.140625 448.8671875 C26.47324783 448.87505028 26.47324783 448.87505028 24.77218628 448.8830719 C22.43423289 448.88945986 20.09624723 448.88819725 17.75830078 448.87963867 C14.21197356 448.87113371 10.66726221 448.89993012 7.12109375 448.93164062 C4.83593798 448.93325323 2.55077939 448.93267397 0.265625 448.9296875 C-0.77850555 448.94092148 -1.82263611 448.95215546 -2.89840698 448.96372986 C-16.84569815 448.83391599 -27.57434124 443.4967323 -37.6796875 434.12109375 C-48.43691899 422.75496236 -50.38465599 410.31131238 -50.31736755 395.1892395 C-50.32154586 393.65473157 -50.32702609 392.12022673 -50.33368737 390.58572757 C-50.3480956 386.39004081 -50.34391178 382.19455126 -50.33652055 377.99885392 C-50.3317797 373.46567856 -50.34430685 368.9325453 -50.35453796 364.39938354 C-50.3717134 355.52664621 -50.37256857 346.65397974 -50.36732506 337.78123011 C-50.36327975 330.56760512 -50.36473121 323.35400104 -50.37007332 316.14037704 C-50.37082174 315.11276224 -50.37157016 314.08514743 -50.37234126 313.02639278 C-50.37387278 310.93863289 -50.37541113 308.85087301 -50.37695623 306.76311313 C-50.39067676 287.19481795 -50.38524675 267.62656279 -50.37377102 248.05826853 C-50.36383939 230.16762604 -50.37677891 212.27708698 -50.40070521 194.38646044 C-50.42510477 176.00303341 -50.43470195 157.61965455 -50.42805248 139.23621166 C-50.42456214 128.92063888 -50.42678016 118.60514563 -50.44430351 108.28958511 C-50.45903619 99.50811601 -50.45964698 90.72678245 -50.4422326 81.94531597 C-50.43372899 77.4678358 -50.4315574 72.99059765 -50.44688416 68.51313019 C-50.46076032 64.40850507 -50.45593077 60.30432866 -50.43664492 56.19972931 C-50.43289355 54.72068716 -50.43578186 53.24160882 -50.44625657 51.76259901 C-50.5507948 35.86214765 -46.45404324 24.36388402 -35.6171875 12.68359375 C-25.39686097 3.01078471 -13.74677019 -0.03850062 0 0 Z " fill="#000000" transform="translate(81.9296875,31.56640625)"/>
</svg>
