<?xml version="1.0" standalone="no"?>
<!DOCTYPE svg PUBLIC "-//W3C//DTD SVG 20010904//EN"
 "http://www.w3.org/TR/2001/REC-SVG-20010904/DTD/svg10.dtd">
<svg version="1.0" xmlns="http://www.w3.org/2000/svg"
 width="512.000000pt" height="512.000000pt" viewBox="0 0 512.000000 512.000000"
 preserveAspectRatio="xMidYMid meet">

<g transform="translate(0.000000,512.000000) scale(0.100000,-0.100000)"
fill="#000000" stroke="none">
<path d="M3030 5111 c-14 -5 -41 -16 -60 -26 -19 -9 -357 -338 -750 -731
l-715 -713 -580 -3 c-567 -3 -581 -3 -626 -24 -58 -27 -116 -85 -143 -143 -21
-46 -21 -50 -21 -911 0 -861 0 -865 21 -911 27 -58 85 -116 143 -143 45 -21
59 -21 626 -24 l580 -3 715 -713 c500 -500 728 -721 759 -736 106 -53 231 -30
314 59 84 90 77 -134 77 2471 0 2605 7 2381 -77 2471 -68 73 -177 106 -263 80z"/>
<path d="M3601 3178 c-103 -50 -145 -178 -94 -283 9 -16 113 -128 231 -247
l216 -218 -216 -217 c-118 -120 -223 -232 -231 -248 -70 -140 33 -305 190
-305 77 0 129 39 353 264 l205 206 215 -214 c128 -128 232 -222 257 -235 135
-68 296 34 296 188 0 34 -7 70 -18 91 -9 19 -114 133 -233 252 l-216 218 221
223 c203 205 222 227 237 276 20 69 12 119 -28 179 -55 82 -161 114 -252 76
-26 -11 -111 -88 -259 -235 l-220 -219 -210 211 c-138 138 -226 219 -257 235
-59 30 -127 31 -187 2z"/>
</g>
</svg>
