<?xml version="1.0" encoding="UTF-8"?>
<svg version="1.1" xmlns="http://www.w3.org/2000/svg" width="512" height="512">
<path d="M0 0 C5.89780459 4.36016268 9.91902341 9.60555936 12.1875 16.6171875 C12.46155041 19.43075675 12.59521128 22.01554925 12.57061005 24.82198811 C12.57556956 25.62398143 12.58052908 26.42597475 12.58563888 27.25227091 C12.59858806 29.93855015 12.59021249 32.62433177 12.58190918 35.31062317 C12.5867984 37.25644699 12.59298835 39.2022679 12.60036707 41.14808387 C12.61678575 46.49454871 12.6144447 51.84086628 12.6089921 57.18734753 C12.60632428 62.9536776 12.62084906 68.7199682 12.63308716 74.48628235 C12.65415398 85.78314596 12.65868128 97.07995827 12.65689927 108.3768392 C12.65559225 117.55851588 12.65939273 126.74017654 12.66682434 135.9218502 C12.66892351 138.56545295 12.67102111 141.2090557 12.67311716 143.85265845 C12.67468245 145.82628482 12.67468245 145.82628482 12.67627937 147.83978244 C12.69005003 165.65900831 12.69740488 183.47822866 12.69295502 201.2974596 C12.69278306 201.99425535 12.69261111 202.69105109 12.69243394 203.40896186 C12.69154506 206.94055772 12.69060025 210.47215357 12.68963593 214.00374941 C12.6894449 214.70512858 12.68925387 215.40650775 12.68905704 216.12914083 C12.68866995 217.54750007 12.68827962 218.9658593 12.68788607 220.38421854 C12.68191658 242.45190794 12.69735217 264.51949245 12.72949219 286.5871582 C12.76557639 311.38393188 12.78485706 336.18063848 12.77995348 360.97744006 C12.77770785 374.10545768 12.78296565 387.23337133 12.80784607 400.36136818 C12.82884756 411.53793277 12.83246253 422.71433639 12.81354648 433.89090756 C12.80438159 439.59342823 12.80326905 445.29564868 12.82390213 450.99814606 C12.84258665 456.21985588 12.83813651 461.44101904 12.81535631 466.66270789 C12.81116423 468.55028264 12.81539095 470.43789909 12.82895225 472.32542977 C12.96347714 492.42004605 12.96347714 492.42004605 5.2128768 500.73579341 C-1.03461755 506.71541312 -6.255792 508.76605885 -14.8125 508.9921875 C-24.75362778 508.72947271 -29.78045112 505.42807517 -36.8125 498.6171875 C-40.22519383 494.8823004 -43.51211883 491.04791828 -46.79109287 487.19564188 C-63.51802711 467.58459273 -80.86345572 448.53617073 -98.5 429.7421875 C-99.63806532 428.52792107 -99.63806532 428.52792107 -100.79912186 427.28912401 C-150.62340426 372.57422431 -150.62340426 372.57422431 -218.84213036 351.86069202 C-237.6372466 351.53100419 -257.08942919 353.75055787 -275.45332336 357.7256012 C-276.43263227 357.93592421 -277.41194117 358.14624722 -278.42092609 358.36294365 C-280.21766608 358.76416052 -282.00866196 359.19264516 -283.79053783 359.65542793 C-291.38219312 361.40872355 -296.04853516 358.89307321 -302.5 354.9921875 C-308.75016141 348.57310281 -311.92735583 341.59837145 -311.96640015 332.71800232 C-311.9707824 332.01195659 -311.97516465 331.30591087 -311.9796797 330.57846981 C-311.9930614 328.206526 -311.99924521 325.83461935 -312.00537109 323.46264648 C-312.01327275 321.76416354 -312.02154174 320.06568226 -312.03015137 318.36720276 C-312.05637072 312.78257856 -312.0716819 307.19794688 -312.0859375 301.61328125 C-312.09129778 299.68961139 -312.09667529 297.76594157 -312.10206985 295.8422718 C-312.12370111 287.83770999 -312.14243604 279.8331502 -312.15369225 271.82856655 C-312.16991878 260.36533135 -312.20306229 248.90243578 -312.26009309 237.43932861 C-312.29884022 229.37548428 -312.31833076 221.3117306 -312.32361281 213.24779564 C-312.32726058 208.43400363 -312.33922012 203.62057387 -312.37171555 198.80688286 C-312.40187913 194.27350008 -312.4080786 189.74069717 -312.39633179 185.20723534 C-312.39611172 183.54886458 -312.40436087 181.89046629 -312.42198563 180.23218918 C-312.53012533 169.46608937 -311.6506235 161.18102952 -304.3125 152.7421875 C-303.4875 152.0409375 -302.6625 151.3396875 -301.8125 150.6171875 C-301.008125 149.8953125 -300.20375 149.1734375 -299.375 148.4296875 C-296.02435463 146.05971882 -293.04272629 144.37803283 -288.80818367 144.83211708 C-286.40527845 145.3449877 -284.03725264 145.94509208 -281.66040039 146.56762695 C-247.62431072 154.61521432 -203.37570002 161.072086 -171.43947124 142.21608829 C-142.6274954 123.72330817 -118.59051194 97.02888057 -95.3125 72.2421875 C-94.51246882 71.39118107 -93.71243764 70.54017465 -92.88816309 69.66338015 C-78.41057134 54.24250386 -64.10792313 38.66337073 -50.19273376 22.73200989 C-49.22090231 21.61946511 -49.22090231 21.61946511 -48.22943789 20.48444468 C-45.20832387 17.01986376 -42.19919636 13.5458403 -39.20912266 10.05443287 C-38.67388794 9.43431739 -38.13865322 8.81420191 -37.58719927 8.17529505 C-36.60408299 7.03601322 -35.62626835 5.8921224 -34.65524429 4.74251682 C-25.96565753 -5.29326844 -11.40685321 -6.64149019 0 0 Z " fill="#000000" transform="translate(324.8125,3.3828125)"/>
<path d="M0 0 C20.45452397 18.65442336 34.14960706 46.12039277 35.5859375 73.89746094 C36.7419132 102.43453269 29.29581819 129.64283014 10.46923828 151.640625 C9.79248047 152.45015625 9.11572266 153.2596875 8.41845703 154.09375 C-2.94605711 167.25478592 -21.23531496 182.23690785 -39.47216797 183.66796875 C-47.70632837 183.5585966 -54.37464047 181.16112379 -60.53076172 175.640625 C-66.52099421 168.70119078 -68.9080976 162.1021152 -68.34326172 153.015625 C-67.33449903 144.69333279 -63.18226048 138.38942861 -56.68774414 133.15527344 C-54.72467786 131.77110149 -52.73432991 130.44629657 -50.71826172 129.140625 C-49.29647855 128.18930628 -47.87589706 127.23618908 -46.45654297 126.28125 C-45.77930176 125.82814453 -45.10206055 125.37503906 -44.40429688 124.90820312 C-33.26837255 117.37396816 -24.94351966 108.92650995 -21.21826172 95.640625 C-19.17122596 84.57875871 -19.44191057 72.14719468 -23.53076172 61.640625 C-23.78599609 60.95097656 -24.04123047 60.26132813 -24.30419922 59.55078125 C-29.18158229 48.25225625 -38.8396615 41.67088364 -48.79077148 35.19458008 C-53.18085706 32.33051474 -56.96771252 29.53832522 -60.53076172 25.640625 C-61.38734375 24.78017578 -61.38734375 24.78017578 -62.26123047 23.90234375 C-66.85745265 18.93645222 -68.43137798 14.77747308 -68.59326172 8.0390625 C-68.20981992 -0.46855238 -65.53880787 -7.96012559 -59.15576172 -13.796875 C-39.53549914 -28.83058269 -15.56369651 -13.82115824 0 0 Z " fill="#000000" transform="translate(463.53076171875,174.359375)"/>
</svg>
