<?xml version="1.0" standalone="no"?>
<!DOCTYPE svg PUBLIC "-//W3C//DTD SVG 20010904//EN"
 "http://www.w3.org/TR/2001/REC-SVG-20010904/DTD/svg10.dtd">
<svg version="1.0" xmlns="http://www.w3.org/2000/svg"
 width="1636.000000pt" height="2758.000000pt" viewBox="0 0 1636.000000 2758.000000"
 preserveAspectRatio="xMidYMid meet">

<g transform="translate(0.000000,2758.000000) scale(0.100000,-0.100000)"
fill="#000000" stroke="none">
<path d="M7755 27394 c-1952 -34 -2250 -41 -2960 -69 -1154 -46 -1815 -106
-2315 -211 -687 -144 -915 -219 -1053 -345 l-72 -66 0 -364 0 -364 29 -43 c26
-38 29 -52 30 -120 1 -67 -2 -81 -24 -110 -25 -33 -25 -35 -25 -245 0 -183 2
-216 18 -244 25 -46 21 -75 -19 -158 -31 -63 -36 -86 -41 -169 l-6 -97 -103
-70 c-57 -39 -117 -86 -134 -105 -29 -33 -30 -38 -30 -129 0 -52 5 -106 12
-120 23 -50 225 -154 403 -206 107 -31 135 -43 135 -59 0 -5 -24 -37 -54 -72
-29 -35 -58 -72 -64 -84 -35 -68 -42 -380 -9 -442 10 -18 59 -80 110 -138 129
-147 167 -207 167 -260 0 -63 -38 -247 -65 -320 -63 -168 -170 -309 -428 -569
-363 -364 -558 -617 -770 -999 -123 -221 -183 -476 -236 -996 -22 -211 -34
-582 -51 -1535 -32 -1841 -35 -2689 -33 -8765 l1 -6145 21 -140 c50 -335 200
-783 364 -1085 170 -314 427 -650 662 -864 224 -204 456 -380 685 -518 497
-299 812 -397 2120 -658 437 -87 554 -107 870 -145 536 -65 748 -84 1230 -109
906 -49 2946 -64 3690 -27 1218 61 1742 130 3110 412 465 96 833 182 856 200
6 5 84 34 173 64 278 94 470 182 676 310 496 306 819 633 1117 1128 230 383
388 773 442 1092 40 236 47 374 46 955 0 1123 -59 15580 -64 15780 -5 218 -16
301 -65 490 -46 176 -95 310 -172 469 -192 398 -381 634 -835 1047 -269 245
-327 315 -418 505 -98 203 -143 369 -125 463 11 58 36 104 157 282 114 168
137 232 130 362 -3 62 -10 99 -25 127 -20 39 -102 123 -173 177 -19 15 -32 29
-30 32 3 2 84 33 180 69 307 115 377 154 412 234 25 57 20 111 -16 157 -14 18
-73 66 -131 106 -59 39 -110 82 -115 93 -12 31 -52 388 -52 463 0 57 3 67 41
120 52 72 53 101 4 191 l-37 68 -1 150 c0 137 2 155 24 205 24 54 24 58 17
270 -10 346 -25 437 -82 500 -40 44 -155 106 -264 143 -408 138 -930 234
-1835 337 -864 98 -1611 137 -3170 165 -919 17 -859 17 -1830 -1z m2735 -193
c684 -37 1911 -133 2315 -182 300 -36 483 -80 479 -115 -10 -83 -1247 -267
-2124 -314 -640 -34 -2981 -58 -4095 -41 -802 12 -959 17 -1525 46 -614 33
-1818 131 -2205 180 -227 29 -421 68 -445 90 -29 26 -31 54 -7 70 45 29 444
82 862 115 1413 109 2189 133 5270 163 484 5 1279 -2 1475 -12z m-7916 -330
c13 -6 49 -43 79 -84 30 -41 69 -84 85 -96 55 -39 324 -97 627 -136 374 -47
1138 -100 2075 -145 1102 -52 1777 -64 3050 -56 2033 13 3159 67 4410 211 266
31 360 47 475 80 125 36 190 74 274 159 l72 73 212 -43 c256 -51 349 -74 487
-119 201 -67 216 -98 79 -159 -140 -62 -300 -96 -739 -161 -797 -116 -1366
-168 -2215 -200 -220 -8 -436 -17 -480 -20 -150 -10 -1169 -35 -1810 -45
-1097 -17 -2394 -9 -3415 19 -206 6 -575 15 -820 21 -761 17 -1122 45 -1940
146 -798 98 -1124 149 -1259 195 -97 33 -161 71 -161 97 0 27 69 88 130 115
92 40 368 106 595 141 111 17 156 19 189 7z m-617 -546 c1535 -213 2125 -266
3298 -295 1235 -30 1678 -35 3045 -35 1468 1 1766 5 2980 45 327 10 681 21
785 24 105 3 277 10 383 17 107 6 234 9 283 7 127 -5 124 0 123 -201 -1 -246
-36 -416 -101 -488 -52 -57 -155 -83 -548 -138 -440 -62 -680 -77 -1440 -92
-319 -6 -590 -15 -602 -20 -13 -5 -23 -13 -23 -19 0 -20 46 -30 260 -54 367
-43 495 -49 915 -43 322 4 452 11 745 36 195 17 432 34 525 37 l170 6 -24 -20
c-50 -40 -269 -73 -691 -102 -313 -22 -1129 -73 -1900 -120 -272 -16 -661 -40
-865 -52 -322 -20 -453 -23 -1010 -22 -785 1 -1200 15 -4029 140 -1257 55
-1500 64 -1512 52 -7 -7 -10 -18 -6 -25 12 -19 1836 -168 2542 -208 1144 -64
2528 -87 3970 -66 1540 23 2256 49 2735 101 347 38 569 52 800 52 127 -1 244
-5 260 -10 29 -8 27 -10 -82 -71 -62 -35 -117 -69 -123 -75 -12 -16 -30 -174
-30 -274 0 -79 -17 -135 -47 -150 -21 -12 -229 -26 -1068 -77 -1512 -91 -2354
-110 -4455 -102 -1403 5 -1573 9 -2185 47 -876 55 -2427 215 -2858 295 -274
51 -579 153 -606 204 -9 16 -4 43 21 128 30 103 32 117 32 278 l1 170 62 -2
c34 -1 133 -13 220 -27 309 -49 338 -51 763 -50 228 1 423 6 445 11 l40 10
-30 12 c-16 7 -264 46 -550 86 -622 89 -934 154 -980 205 -24 26 -16 113 20
228 35 112 44 115 179 79 220 -60 915 -187 1316 -241 428 -57 777 -84 1205
-93 311 -5 770 8 816 25 23 9 22 9 -11 20 -19 6 -228 27 -465 47 -777 65
-1474 161 -2230 305 -644 124 -780 164 -816 240 -17 38 -25 266 -9 285 19 22
80 19 357 -20z m12554 -161 c170 -32 207 -90 130 -205 -22 -33 -45 -83 -52
-113 -10 -47 -9 -64 8 -132 25 -98 18 -126 -40 -156 -59 -29 -208 -58 -307
-58 -116 0 -163 22 -192 87 -19 42 -20 60 -15 182 6 147 39 294 74 333 64 71
219 95 394 62z m49 -1055 c73 -16 80 -30 80 -169 0 -92 4 -129 22 -183 27 -82
20 -110 -37 -148 -79 -52 -377 -159 -443 -159 -50 0 -95 49 -120 132 -57 185
-55 460 5 509 12 10 67 15 212 19 108 3 204 7 213 8 9 1 40 -3 68 -9z m-12995
-673 c353 -93 647 -147 1340 -245 1024 -146 1868 -221 3190 -283 183 -9 623
-13 1370 -13 1259 1 1574 8 3594 81 536 19 1000 34 1030 32 37 -2 -67 -18
-304 -46 -1178 -141 -2139 -195 -3695 -208 -1261 -11 -2286 24 -3310 112
-1148 99 -1803 183 -2602 334 -545 104 -816 180 -848 239 -17 32 -13 63 8 57
9 -3 112 -30 227 -60z m10628 -423 c-7 -2 -21 -2 -30 0 -10 3 -4 5 12 5 17 0
24 -2 18 -5z m1607 -58 c0 -9 -120 -65 -193 -90 -81 -27 -379 -80 -667 -119
-527 -72 -1206 -123 -2290 -171 -2225 -98 -3825 -94 -5580 15 -1286 81 -1975
155 -2470 265 -279 63 -274 66 55 30 717 -77 2592 -209 3610 -255 1533 -69
3007 -64 4515 15 981 52 1608 114 2580 254 433 63 440 64 440 56z m-11423 -41
c-3 -3 -12 -4 -19 -1 -8 3 -5 6 6 6 11 1 17 -2 13 -5z m-555 -75 c78 -31 455
-136 588 -163 180 -38 418 -72 765 -110 817 -89 1889 -178 2655 -221 681 -37
806 -40 1745 -38 909 2 997 3 2650 57 1621 53 1730 58 2100 91 819 73 1073
112 1485 225 359 99 628 160 709 160 23 0 48 -8 62 -19 50 -41 18 -185 -59
-264 -86 -88 -256 -117 -1112 -192 -1501 -130 -2420 -181 -4205 -235 -1597
-48 -3050 -36 -4225 35 -1550 94 -2799 217 -3065 302 -131 42 -225 114 -244
188 -20 78 -14 139 15 174 31 37 61 40 136 10z m508 -635 c129 -19 294 -43
366 -54 517 -76 1613 -153 3004 -210 1337 -54 2828 -51 4490 10 686 26 2061
93 2670 130 426 27 697 58 1173 135 87 14 165 25 173 25 23 0 42 -58 54 -161
28 -243 100 -486 184 -625 87 -143 188 -254 560 -612 538 -518 587 -581 739
-932 109 -254 124 -342 137 -815 14 -557 29 -4088 41 -10165 l11 -5545 -32
-215 c-81 -554 -153 -895 -235 -1115 -113 -304 -356 -666 -635 -945 -151 -152
-229 -211 -380 -289 -199 -103 -383 -154 -890 -251 -352 -67 -1207 -194 -1650
-245 -998 -114 -2463 -159 -4433 -136 -1567 19 -2406 56 -3477 152 -1109 99
-1668 196 -2140 371 -177 65 -437 194 -525 260 -99 75 -276 256 -366 374 -90
117 -229 327 -288 435 -137 251 -276 839 -360 1521 -32 261 -32 251 -61 1718
-34 1689 -77 4697 -100 6970 -21 2068 -7 4061 40 5485 22 644 65 1502 90 1785
18 197 131 560 256 818 122 255 251 432 440 607 197 181 437 455 594 675 103
145 142 214 176 315 24 72 28 101 35 285 4 113 12 219 17 235 9 32 47 58 72
49 8 -3 121 -21 250 -40z"/>
</g>
</svg>
