<?xml version="1.0" encoding="UTF-8"?>
<svg xmlns="http://www.w3.org/2000/svg" xmlns:xlink="http://www.w3.org/1999/xlink" width="170px" height="287px" viewBox="0 0 170 286" version="1.1">
<g id="surface1">
<path style=" stroke:none;fill-rule:nonzero;fill:rgb(0%,0%,0%);fill-opacity:1;" d="M 80.582031 1.929688 C 60.300781 2.28125 57.203125 2.355469 49.824219 2.644531 C 37.835938 3.121094 30.964844 3.742188 25.769531 4.832031 C 18.632812 6.324219 16.261719 7.101562 14.828125 8.410156 L 14.078125 9.09375 L 14.078125 16.640625 L 14.382812 17.085938 C 14.652344 17.480469 14.683594 17.625 14.691406 18.332031 C 14.703125 19.027344 14.671875 19.171875 14.445312 19.472656 C 14.183594 19.8125 14.183594 19.835938 14.183594 22.011719 C 14.183594 23.910156 14.203125 24.25 14.371094 24.542969 C 14.628906 25.019531 14.589844 25.320312 14.171875 26.179688 C 13.851562 26.832031 13.800781 27.070312 13.746094 27.933594 L 13.683594 28.9375 L 12.613281 29.664062 C 12.023438 30.066406 11.398438 30.554688 11.222656 30.753906 C 10.921875 31.09375 10.910156 31.144531 10.910156 32.089844 C 10.910156 32.628906 10.960938 33.1875 11.035156 33.335938 C 11.273438 33.851562 13.375 34.929688 15.222656 35.46875 C 16.335938 35.792969 16.625 35.914062 16.625 36.082031 C 16.625 36.132812 16.375 36.464844 16.066406 36.828125 C 15.761719 37.191406 15.460938 37.574219 15.398438 37.699219 C 15.035156 38.402344 14.964844 41.640625 15.304688 42.28125 C 15.410156 42.46875 15.917969 43.113281 16.449219 43.710938 C 17.789062 45.238281 18.183594 45.859375 18.183594 46.410156 C 18.183594 47.0625 17.789062 48.96875 17.507812 49.726562 C 16.855469 51.46875 15.742188 52.929688 13.0625 55.625 C 9.289062 59.398438 7.261719 62.023438 5.058594 65.984375 C 3.78125 68.277344 3.160156 70.917969 2.609375 76.3125 C 2.378906 78.5 2.253906 82.34375 2.078125 92.226562 C 1.746094 111.3125 1.714844 120.105469 1.734375 183.105469 L 1.746094 246.816406 L 1.964844 248.269531 C 2.484375 251.742188 4.042969 256.386719 5.746094 259.519531 C 7.511719 262.773438 10.183594 266.257812 12.625 268.476562 C 14.953125 270.59375 17.363281 272.417969 19.742188 273.847656 C 24.90625 276.949219 28.179688 277.964844 41.773438 280.671875 C 46.3125 281.574219 47.53125 281.78125 50.8125 282.175781 C 56.382812 282.847656 58.585938 283.046875 63.59375 283.304688 C 73.007812 283.8125 94.207031 283.96875 101.9375 283.585938 C 114.59375 282.953125 120.039062 282.234375 134.253906 279.3125 C 139.085938 278.316406 142.910156 277.425781 143.148438 277.238281 C 143.210938 277.1875 144.023438 276.886719 144.945312 276.574219 C 147.835938 275.601562 149.832031 274.6875 151.972656 273.359375 C 157.125 270.1875 160.480469 266.796875 163.578125 261.664062 C 165.96875 257.695312 167.609375 253.652344 168.171875 250.34375 C 168.585938 247.894531 168.660156 246.464844 168.648438 240.441406 C 168.648438 228.796875 168.035156 78.902344 167.984375 76.828125 C 167.933594 74.570312 167.816406 73.707031 167.308594 71.75 C 166.832031 69.925781 166.320312 68.535156 165.519531 66.886719 C 163.527344 62.757812 161.5625 60.3125 156.84375 56.03125 C 154.050781 53.488281 153.445312 52.765625 152.5 50.792969 C 151.484375 48.691406 151.015625 46.96875 151.203125 45.992188 C 151.316406 45.390625 151.578125 44.914062 152.832031 43.070312 C 154.019531 41.328125 154.257812 40.664062 154.183594 39.316406 C 154.152344 38.675781 154.082031 38.289062 153.925781 38 C 153.71875 37.59375 152.863281 36.726562 152.128906 36.164062 C 151.929688 36.007812 151.792969 35.863281 151.816406 35.832031 C 151.847656 35.8125 152.6875 35.492188 153.6875 35.117188 C 156.875 33.925781 157.601562 33.519531 157.96875 32.691406 C 158.226562 32.101562 158.175781 31.539062 157.800781 31.0625 C 157.65625 30.875 157.042969 30.378906 156.441406 29.964844 C 155.828125 29.558594 155.296875 29.113281 155.246094 29 C 155.121094 28.679688 154.703125 24.976562 154.703125 24.199219 C 154.703125 23.609375 154.734375 23.503906 155.128906 22.957031 C 155.671875 22.207031 155.679688 21.910156 155.171875 20.976562 L 154.789062 20.269531 L 154.777344 18.714844 C 154.777344 17.292969 154.796875 17.109375 155.027344 16.589844 C 155.277344 16.03125 155.277344 15.988281 155.203125 13.789062 C 155.097656 10.203125 154.941406 9.257812 154.351562 8.605469 C 153.933594 8.148438 152.738281 7.507812 151.609375 7.121094 C 147.367188 5.691406 141.945312 4.695312 132.539062 3.628906 C 123.5625 2.613281 115.800781 2.207031 99.601562 1.917969 C 90.050781 1.742188 90.671875 1.742188 80.582031 1.929688 Z M 109.003906 3.929688 C 116.109375 4.3125 128.859375 5.308594 133.058594 5.816406 C 136.175781 6.191406 138.078125 6.644531 138.035156 7.007812 C 137.933594 7.871094 125.078125 9.777344 115.964844 10.265625 C 109.316406 10.617188 84.988281 10.867188 73.414062 10.691406 C 65.078125 10.566406 63.449219 10.511719 57.566406 10.210938 C 51.1875 9.871094 38.675781 8.855469 34.65625 8.347656 C 32.296875 8.046875 30.28125 7.640625 30.03125 7.414062 C 29.730469 7.144531 29.707031 6.851562 29.957031 6.6875 C 30.425781 6.386719 34.570312 5.835938 38.914062 5.496094 C 53.597656 4.363281 61.660156 4.117188 93.675781 3.804688 C 98.707031 3.753906 106.96875 3.824219 109.003906 3.929688 Z M 26.746094 7.351562 C 26.882812 7.414062 27.257812 7.796875 27.566406 8.222656 C 27.878906 8.648438 28.285156 9.09375 28.449219 9.21875 C 29.023438 9.621094 31.816406 10.222656 34.964844 10.628906 C 38.851562 11.113281 46.792969 11.664062 56.527344 12.132812 C 67.980469 12.671875 74.992188 12.792969 88.222656 12.710938 C 109.347656 12.578125 121.046875 12.015625 134.046875 10.523438 C 136.808594 10.203125 137.789062 10.035156 138.980469 9.695312 C 140.28125 9.320312 140.957031 8.925781 141.828125 8.046875 L 142.578125 7.289062 L 144.78125 7.734375 C 147.441406 8.261719 148.40625 8.503906 149.839844 8.96875 C 151.929688 9.664062 152.085938 9.984375 150.660156 10.617188 C 149.207031 11.261719 147.542969 11.613281 142.984375 12.285156 C 134.699219 13.488281 128.789062 14.027344 119.964844 14.359375 C 117.679688 14.441406 115.4375 14.535156 114.980469 14.566406 C 113.421875 14.671875 102.832031 14.929688 96.171875 15.035156 C 84.769531 15.210938 71.292969 15.128906 60.683594 14.835938 C 58.542969 14.773438 54.710938 14.679688 52.164062 14.621094 C 44.257812 14.441406 40.503906 14.152344 32.003906 13.105469 C 23.710938 12.089844 20.324219 11.5625 18.921875 11.082031 C 17.914062 10.742188 17.25 10.347656 17.25 10.078125 C 17.25 9.796875 17.964844 9.164062 18.601562 8.886719 C 19.554688 8.472656 22.425781 7.785156 24.78125 7.421875 C 25.9375 7.246094 26.402344 7.226562 26.746094 7.351562 Z M 20.335938 13.011719 C 36.285156 15.222656 42.417969 15.769531 54.605469 16.070312 C 67.4375 16.382812 72.042969 16.433594 86.246094 16.433594 C 101.5 16.421875 104.597656 16.382812 117.210938 15.96875 C 120.609375 15.863281 124.289062 15.75 125.371094 15.71875 C 126.460938 15.6875 128.25 15.613281 129.351562 15.542969 C 130.460938 15.480469 131.78125 15.449219 132.289062 15.46875 C 133.609375 15.519531 133.578125 15.46875 133.570312 17.554688 C 133.558594 20.105469 133.195312 21.867188 132.519531 22.613281 C 131.980469 23.203125 130.910156 23.472656 126.824219 24.042969 C 122.253906 24.6875 119.757812 24.84375 111.859375 24.996094 C 108.546875 25.058594 105.730469 25.152344 105.605469 25.207031 C 105.46875 25.257812 105.367188 25.339844 105.367188 25.402344 C 105.367188 25.609375 105.84375 25.714844 108.070312 25.960938 C 111.882812 26.40625 113.210938 26.46875 117.578125 26.40625 C 120.921875 26.367188 122.273438 26.292969 125.316406 26.035156 C 127.34375 25.859375 129.808594 25.683594 130.773438 25.652344 L 132.539062 25.589844 L 132.289062 25.796875 C 131.769531 26.210938 129.496094 26.554688 125.109375 26.855469 C 121.859375 27.082031 113.378906 27.609375 105.367188 28.097656 C 102.539062 28.265625 98.5 28.511719 96.378906 28.636719 C 93.03125 28.84375 91.671875 28.875 85.882812 28.867188 C 77.726562 28.855469 73.414062 28.710938 44.015625 27.414062 C 30.957031 26.84375 28.429688 26.75 28.304688 26.875 C 28.234375 26.949219 28.203125 27.0625 28.242188 27.132812 C 28.367188 27.332031 47.320312 28.875 54.65625 29.289062 C 66.546875 29.953125 80.925781 30.191406 95.910156 29.976562 C 111.914062 29.738281 119.351562 29.464844 124.332031 28.925781 C 127.9375 28.535156 130.242188 28.386719 132.644531 28.386719 C 133.964844 28.398438 135.179688 28.441406 135.34375 28.492188 C 135.648438 28.574219 135.625 28.597656 134.492188 29.226562 C 133.847656 29.589844 133.277344 29.945312 133.214844 30.007812 C 133.089844 30.171875 132.902344 31.808594 132.902344 32.847656 C 132.902344 33.664062 132.726562 34.246094 132.414062 34.402344 C 132.195312 34.527344 130.035156 34.671875 121.316406 35.199219 C 105.605469 36.144531 96.855469 36.339844 75.023438 36.257812 C 60.445312 36.207031 58.679688 36.164062 52.320312 35.769531 C 43.21875 35.199219 27.101562 33.542969 22.621094 32.710938 C 19.773438 32.183594 16.605469 31.125 16.324219 30.597656 C 16.230469 30.429688 16.28125 30.152344 16.542969 29.269531 C 16.855469 28.203125 16.875 28.058594 16.875 26.386719 L 16.886719 24.625 L 17.53125 24.644531 C 17.882812 24.65625 18.910156 24.78125 19.816406 24.925781 C 23.027344 25.433594 23.328125 25.453125 27.746094 25.445312 C 30.113281 25.433594 32.140625 25.382812 32.367188 25.328125 L 32.785156 25.226562 L 32.472656 25.101562 C 32.304688 25.027344 29.730469 24.625 26.757812 24.210938 C 20.292969 23.289062 17.050781 22.613281 16.574219 22.085938 C 16.324219 21.816406 16.40625 20.914062 16.78125 19.71875 C 17.144531 18.558594 17.238281 18.527344 18.640625 18.902344 C 20.929688 19.523438 28.148438 20.839844 32.316406 21.398438 C 36.765625 21.992188 40.390625 22.269531 44.839844 22.363281 C 48.070312 22.417969 52.839844 22.28125 53.316406 22.105469 C 53.554688 22.011719 53.546875 22.011719 53.203125 21.898438 C 53.003906 21.835938 50.832031 21.617188 48.371094 21.410156 C 40.296875 20.738281 33.054688 19.742188 25.199219 18.25 C 18.507812 16.960938 17.09375 16.546875 16.71875 15.761719 C 16.542969 15.367188 16.460938 13 16.625 12.804688 C 16.824219 12.578125 17.457031 12.609375 20.335938 13.011719 Z M 150.785156 14.679688 C 152.554688 15.011719 152.9375 15.613281 152.136719 16.808594 C 151.910156 17.148438 151.671875 17.667969 151.597656 17.980469 C 151.492188 18.464844 151.503906 18.640625 151.679688 19.347656 C 151.941406 20.363281 151.867188 20.652344 151.265625 20.964844 C 150.652344 21.265625 149.101562 21.566406 148.074219 21.566406 C 146.871094 21.566406 146.378906 21.339844 146.078125 20.664062 C 145.882812 20.230469 145.871094 20.042969 145.921875 18.777344 C 145.984375 17.253906 146.328125 15.730469 146.691406 15.324219 C 147.359375 14.589844 148.96875 14.339844 150.785156 14.679688 Z M 151.296875 25.621094 C 152.054688 25.785156 152.128906 25.929688 152.128906 27.371094 C 152.128906 28.328125 152.167969 28.710938 152.355469 29.269531 C 152.636719 30.121094 152.5625 30.410156 151.972656 30.804688 C 151.148438 31.34375 148.054688 32.453125 147.367188 32.453125 C 146.847656 32.453125 146.378906 31.945312 146.121094 31.085938 C 145.527344 29.167969 145.550781 26.316406 146.171875 25.808594 C 146.296875 25.703125 146.871094 25.652344 148.375 25.609375 C 149.5 25.578125 150.496094 25.539062 150.589844 25.527344 C 150.683594 25.515625 151.003906 25.558594 151.296875 25.621094 Z M 16.261719 32.597656 C 19.929688 33.5625 22.984375 34.121094 30.1875 35.136719 C 40.828125 36.652344 49.597656 37.429688 63.335938 38.074219 C 65.234375 38.164062 69.808594 38.207031 77.570312 38.207031 C 90.652344 38.195312 93.925781 38.125 114.917969 37.367188 C 120.484375 37.171875 125.308594 37.015625 125.621094 37.035156 C 126.003906 37.054688 124.921875 37.222656 122.460938 37.511719 C 110.21875 38.972656 100.234375 39.535156 84.066406 39.667969 C 70.960938 39.785156 60.308594 39.421875 49.671875 38.507812 C 37.742188 37.480469 30.933594 36.609375 22.632812 35.046875 C 16.96875 33.964844 14.152344 33.179688 13.820312 32.566406 C 13.644531 32.234375 13.683594 31.914062 13.902344 31.976562 C 13.996094 32.007812 15.066406 32.285156 16.261719 32.597656 Z M 126.699219 36.984375 C 126.628906 37.003906 126.480469 37.003906 126.386719 36.984375 C 126.285156 36.953125 126.347656 36.933594 126.511719 36.933594 C 126.691406 36.933594 126.761719 36.953125 126.699219 36.984375 Z M 143.398438 37.585938 C 143.398438 37.679688 142.152344 38.257812 141.394531 38.519531 C 140.550781 38.796875 137.453125 39.347656 134.460938 39.753906 C 128.984375 40.5 121.929688 41.027344 110.667969 41.523438 C 87.546875 42.542969 70.921875 42.5 52.683594 41.371094 C 39.320312 40.53125 32.160156 39.761719 27.015625 38.621094 C 24.117188 37.96875 24.171875 37.9375 27.589844 38.3125 C 35.039062 39.109375 54.523438 40.476562 65.101562 40.953125 C 81.03125 41.671875 96.347656 41.617188 112.015625 40.800781 C 122.210938 40.261719 128.726562 39.617188 138.828125 38.164062 C 143.324219 37.511719 143.398438 37.503906 143.398438 37.585938 Z M 24.699219 38.011719 C 24.667969 38.042969 24.574219 38.050781 24.503906 38.019531 C 24.417969 37.988281 24.449219 37.957031 24.566406 37.957031 C 24.679688 37.949219 24.742188 37.980469 24.699219 38.011719 Z M 18.933594 38.789062 C 19.742188 39.109375 23.660156 40.199219 25.042969 40.476562 C 26.914062 40.871094 29.386719 41.222656 32.992188 41.617188 C 41.480469 42.542969 52.621094 43.464844 60.582031 43.910156 C 67.65625 44.292969 68.957031 44.324219 78.714844 44.304688 C 88.160156 44.28125 89.074219 44.273438 106.25 43.710938 C 123.09375 43.164062 124.226562 43.113281 128.070312 42.769531 C 136.582031 42.011719 139.222656 41.609375 143.503906 40.4375 C 147.234375 39.410156 150.027344 38.777344 150.871094 38.777344 C 151.109375 38.777344 151.367188 38.859375 151.515625 38.972656 C 152.035156 39.398438 151.699219 40.894531 150.902344 41.710938 C 150.007812 42.625 148.242188 42.925781 139.347656 43.703125 C 123.75 45.050781 114.199219 45.578125 95.652344 46.140625 C 79.054688 46.636719 63.957031 46.511719 51.75 45.777344 C 35.640625 44.800781 22.664062 43.527344 19.898438 42.644531 C 18.539062 42.210938 17.5625 41.464844 17.363281 40.695312 C 17.15625 39.886719 17.21875 39.253906 17.519531 38.890625 C 17.839844 38.507812 18.152344 38.476562 18.933594 38.789062 Z M 24.210938 45.371094 C 25.550781 45.570312 27.265625 45.816406 28.015625 45.933594 C 33.386719 46.71875 44.777344 47.519531 59.230469 48.109375 C 73.121094 48.667969 88.617188 48.636719 105.886719 48.003906 C 113.015625 47.734375 127.300781 47.042969 133.628906 46.65625 C 138.058594 46.378906 140.875 46.054688 145.820312 45.257812 C 146.722656 45.113281 147.535156 45 147.617188 45 C 147.855469 45 148.054688 45.601562 148.179688 46.667969 C 148.46875 49.1875 149.21875 51.707031 150.089844 53.148438 C 150.996094 54.628906 152.042969 55.78125 155.910156 59.492188 C 161.5 64.863281 162.007812 65.515625 163.589844 69.15625 C 164.722656 71.789062 164.878906 72.703125 165.011719 77.605469 C 165.15625 83.382812 165.3125 119.992188 165.4375 183 L 165.550781 240.492188 L 165.21875 242.722656 C 164.378906 248.464844 163.628906 252.003906 162.777344 254.285156 C 161.605469 257.433594 159.078125 261.1875 156.179688 264.082031 C 154.609375 265.65625 153.800781 266.269531 152.230469 267.078125 C 150.164062 268.144531 148.25 268.675781 142.984375 269.679688 C 139.324219 270.375 130.441406 271.691406 125.835938 272.21875 C 115.46875 273.402344 100.242188 273.867188 79.773438 273.628906 C 63.488281 273.433594 54.773438 273.050781 43.644531 272.054688 C 32.121094 271.027344 26.308594 270.023438 21.40625 268.207031 C 19.566406 267.535156 16.863281 266.195312 15.949219 265.511719 C 14.921875 264.734375 13.082031 262.859375 12.148438 261.632812 C 11.210938 260.421875 9.769531 258.242188 9.15625 257.125 C 7.730469 254.523438 6.285156 248.425781 5.414062 241.355469 C 5.082031 238.648438 5.082031 238.75 4.78125 223.542969 C 4.425781 206.027344 3.980469 174.839844 3.742188 151.273438 C 3.523438 129.832031 3.667969 109.167969 4.15625 94.402344 C 4.386719 87.726562 4.832031 78.832031 5.089844 75.894531 C 5.277344 73.855469 6.453125 70.089844 7.75 67.414062 C 9.019531 64.769531 10.359375 62.9375 12.324219 61.121094 C 14.371094 59.246094 16.863281 56.402344 18.496094 54.121094 C 19.566406 52.621094 19.972656 51.902344 20.324219 50.855469 C 20.574219 50.109375 20.617188 49.808594 20.6875 47.902344 C 20.730469 46.730469 20.8125 45.632812 20.867188 45.464844 C 20.960938 45.132812 21.355469 44.863281 21.613281 44.957031 C 21.695312 44.988281 22.871094 45.175781 24.210938 45.371094 Z M 24.210938 45.371094 "/>
</g>
</svg>
